<svg width="25" height="26" viewBox="0 0 25 26" fill="none" xmlns="http://www.w3.org/2000/svg">
<path d="M0 13C0 6.09644 5.59644 0.5 12.5 0.5C19.4036 0.5 25 6.09644 25 13C25 19.9036 19.4036 25.5 12.5 25.5C5.59644 25.5 0 19.9036 0 13Z" fill="#725690"/>
<g clip-path="url(#clip0_208_254)">
<path d="M15.4523 7.26032C16.569 7.26032 17.4768 8.15711 17.4768 9.25961C17.4768 10.2032 16.811 10.9963 15.9186 11.205V13.4405C16.8434 13.3416 17.6789 12.95 18.3292 12.3621C18.6784 12.0461 18.9746 11.6733 19.2016 11.2583C19.5275 10.6639 19.7128 9.98292 19.7128 9.25949C19.7128 6.93647 17.8053 5.05319 15.4523 5.05319C14.9 5.05319 14.3716 5.15688 13.8871 5.346V7.99347C14.2585 7.54614 14.8224 7.26032 15.4523 7.26032Z" fill="#F4F4F4"/>
<path d="M15.032 11.2584H12.9952V5.05319H12.9748H10.7592H10.7388V11.2584H8.702V13.466H10.7388V19.6713H10.7592H12.9748H12.9952V13.466H15.032V11.2584Z" fill="#F4F4F4"/>
<path d="M19.2015 13.4754C19.1135 13.3145 19.0152 13.1599 18.9073 13.0123C18.3364 13.5269 17.6632 13.9016 16.9373 14.1175C17.2722 14.4742 17.4769 14.9509 17.4769 15.4743C17.4769 16.5766 16.5688 17.4732 15.4523 17.4732C14.8224 17.4732 14.2584 17.1878 13.8873 16.7403V19.3878C14.3717 19.5767 14.8999 19.6806 15.4523 19.6806C17.0726 19.6806 18.4811 18.7879 19.2015 17.4731C19.5275 16.8786 19.7128 16.1977 19.7128 15.4742C19.7128 14.7507 19.5275 14.0698 19.2015 13.4753V13.4754Z" fill="#F4F4F4"/>
<path d="M5.40485 12.3622C6.05511 12.95 6.8908 13.3417 7.81542 13.4407V11.2051C6.92308 10.9963 6.25722 10.2033 6.25722 9.25961C6.25722 8.15711 7.16504 7.26032 8.2817 7.26032C8.91155 7.26032 9.47552 7.54614 9.84698 7.99347V5.346C9.36246 5.15688 8.83402 5.05319 8.2817 5.05319C5.92873 5.05319 4.02127 6.93647 4.02127 9.25961C4.02127 9.98303 4.20658 10.6642 4.53243 11.2584C4.75939 11.6733 5.05547 12.0462 5.40485 12.3622Z" fill="#F4F4F4"/>
<path d="M8.2817 17.4734C7.16528 17.4734 6.2571 16.5767 6.2571 15.4744C6.2571 14.951 6.46185 14.4742 6.7967 14.1176C6.07083 13.9019 5.39765 13.5271 4.82672 13.0124C4.71894 13.1601 4.62052 13.3146 4.53255 13.4755C4.20658 14.07 4.02127 14.7509 4.02127 15.4744C4.02127 16.198 4.20658 16.8789 4.53255 17.4734C5.25302 18.788 6.66156 19.6809 8.2817 19.6809C8.83414 19.6809 9.36234 19.5768 9.84674 19.388V16.7406C9.47564 17.1879 8.91167 17.4735 8.2817 17.4735V17.4734Z" fill="#F4F4F4"/>
</g>
<defs>
<clipPath id="clip0_208_254">
<rect width="15.6915" height="14.6277" fill="white" transform="translate(4.02127 5.05319)"/>
</clipPath>
</defs>
</svg>
