<svg width="49" height="48" viewBox="0 0 49 48" fill="none" xmlns="http://www.w3.org/2000/svg">
<path d="M42.3855 33.671C41.0728 25.7734 36.9864 19.8925 33.4339 16.4382C32.4002 15.4331 31.8833 14.9305 30.7416 14.4654C29.5998 14.0002 28.6184 14.0002 26.6556 14.0002H22.3444C20.3816 14.0002 19.4002 14.0002 18.2584 14.4654C17.1167 14.9305 16.5998 15.4331 15.5661 16.4382C12.0136 19.8925 7.92721 25.7734 6.61453 33.671C5.63786 39.5471 11.0585 44.0002 17.1166 44.0002H31.8834C37.9415 44.0002 43.3621 39.5471 42.3855 33.671Z" stroke="#725690" stroke-width="4.5" stroke-linecap="round"/>
<path d="M26.5761 21.9998C26.5761 20.7571 25.5687 19.7498 24.3261 19.7498C23.0834 19.7498 22.0761 20.7571 22.0761 21.9998L26.5761 21.9998ZM22.0761 35.9998C22.0761 37.2424 23.0834 38.2498 24.3261 38.2498C25.5687 38.2498 26.5761 37.2424 26.5761 35.9998H22.0761ZM25.8742 26.3613C26.6261 27.3506 28.0377 27.543 29.027 26.791C30.0163 26.0391 30.2087 24.6275 29.4567 23.6382L25.8742 26.3613ZM22.4945 31.6453C21.5686 30.8166 20.1461 30.8955 19.3174 31.8214C18.4887 32.7474 18.5676 34.1698 19.4935 34.9985L22.4945 31.6453ZM24.3261 26.5484C23.7378 26.5484 23.3173 26.5021 23.0268 26.4397C22.7354 26.3772 22.6318 26.3106 22.6266 26.3071C22.6261 26.3068 22.6313 26.3102 22.6404 26.3182C22.6496 26.3263 22.6615 26.3378 22.6747 26.353C22.7028 26.3853 22.7259 26.4216 22.7419 26.4556C22.774 26.5236 22.75 26.5214 22.75 26.3787H18.25C18.25 27.7336 18.7521 29.1229 20.1125 30.0393C21.2825 30.8275 22.7897 31.0484 24.3261 31.0484V26.5484ZM22.75 26.3787C22.75 26.4821 22.6883 26.3908 22.9565 26.193C23.2239 25.9957 23.7008 25.8056 24.3261 25.8056V21.3056C22.8383 21.3056 21.4021 21.7475 20.2847 22.572C19.1681 23.3958 18.25 24.7161 18.25 26.3787H22.75ZM26.25 31.6215C26.25 31.7652 26.2207 31.7927 26.2324 31.7727C26.2406 31.7588 26.2274 31.7952 26.1189 31.8604C25.8544 32.0193 25.2741 32.1945 24.3261 32.1945V36.6945C25.6832 36.6945 27.1899 36.4665 28.436 35.7179C29.8187 34.8874 30.75 33.4761 30.75 31.6215H26.25ZM24.3261 31.0484C24.9219 31.0484 25.3704 31.0924 25.6996 31.16C26.0301 31.2278 26.1795 31.3071 26.2274 31.3384C26.2543 31.356 26.2293 31.3418 26.214 31.3102C26.2071 31.2959 26.25 31.3726 26.25 31.6215H30.75C30.75 30.0147 30.1427 28.5195 28.6856 27.5692C27.431 26.7509 25.8443 26.5484 24.3261 26.5484V31.0484ZM26.5761 23.5556L26.5761 21.9998L22.0761 21.9998L22.0761 23.5556L26.5761 23.5556ZM22.0761 34.4445V35.9998H26.5761V34.4445H22.0761ZM24.3261 25.8056C25.2134 25.8056 25.7309 26.1729 25.8742 26.3613L29.4567 23.6382C28.2899 22.1031 26.3075 21.3056 24.3261 21.3056V25.8056ZM24.3261 32.1945C23.4064 32.1945 22.7673 31.8895 22.4945 31.6453L19.4935 34.9985C20.7446 36.1182 22.5234 36.6945 24.3261 36.6945V32.1945Z" fill="#725690"/>
<path d="M15.0132 8.88549C14.6006 8.28492 14.0025 7.46974 15.238 7.28385C16.5078 7.09277 17.8264 7.96204 19.1171 7.94417C20.2847 7.92801 20.8796 7.41014 21.5178 6.67072C22.1898 5.89211 23.2304 3.99976 24.5 3.99976C25.7695 3.99976 26.8101 5.89211 27.4821 6.67072C28.1204 7.41014 28.7152 7.92801 29.8829 7.94417C31.1735 7.96204 32.4921 7.09277 33.762 7.28385C34.9974 7.46974 34.3993 8.28492 33.9867 8.88549L32.1211 11.601C31.323 12.7627 30.9239 13.3435 30.0889 13.6716C29.2538 13.9998 28.1746 13.9998 26.0164 13.9998H22.9836C20.8253 13.9998 19.7462 13.9998 18.9111 13.6716C18.076 13.3435 17.677 12.7627 16.8789 11.601L15.0132 8.88549Z" stroke="#725690" stroke-width="4.5"/>
</svg>
