<svg width="48" height="48" viewBox="0 0 48 48" fill="none" xmlns="http://www.w3.org/2000/svg">
<path d="M43.7212 10.7836C44.575 12.9928 43.3777 14.5053 41.0601 15.9951C39.1901 17.1973 36.8077 18.4996 34.2834 20.726C31.8087 22.9087 29.3936 25.5375 27.2473 28.125C25.1097 30.702 23.2929 33.1721 22.0092 35.0011C21.1797 36.1829 20.022 37.9458 20.022 37.9458C19.2056 39.2376 17.7379 40.0193 16.1641 39.9997C14.59 39.9801 13.1441 39.1625 12.3631 37.8503C10.3666 34.4962 8.82589 33.1715 8.11781 32.6957C6.22314 31.4225 3.99998 31.2342 3.99998 28.2672C3.99998 25.9108 5.98977 24.0006 8.44429 24.0006C10.1772 24.0646 11.7879 24.7461 13.2151 25.7052C14.1274 26.3182 15.0938 27.129 16.0989 28.1964C17.2787 26.5872 18.7003 24.7307 20.2939 22.8095C22.6083 20.0194 25.3401 17.0262 28.2697 14.4424C31.1496 11.9024 34.4792 9.52476 38.0085 8.26768C40.3097 7.44801 42.8674 8.57442 43.7212 10.7836Z" fill="white" stroke="#725690" stroke-width="4.5" stroke-linecap="round" stroke-linejoin="round"/>
</svg>
