<svg width="16" height="16" viewBox="0 0 16 16" fill="none" xmlns="http://www.w3.org/2000/svg">
<path d="M12.6603 12.6667H12.6667M12.6603 12.6667C12.2452 13.0783 11.4929 12.9758 10.9653 12.9758C10.3177 12.9758 10.0058 13.1025 9.54361 13.5647C9.15006 13.9582 8.62248 14.6667 8.00001 14.6667C7.37753 14.6667 6.84994 13.9582 6.45638 13.5647C5.99418 13.1025 5.68232 12.9758 5.0347 12.9758C4.50711 12.9758 3.75478 13.0783 3.33965 12.6667C2.9212 12.2517 3.02418 11.4963 3.02418 10.9653C3.02418 10.2943 2.87743 9.98572 2.39958 9.50788C1.68875 8.79707 1.33334 8.44162 1.33333 7.99998C1.33333 7.55833 1.68874 7.20293 2.39956 6.49211C2.82613 6.06554 3.02418 5.64285 3.02418 5.0347C3.02418 4.5071 2.92166 3.75476 3.33333 3.33962C3.74828 2.92118 4.50373 3.02417 5.03471 3.02417C5.64284 3.02417 6.06554 2.82613 6.4921 2.39957C7.20293 1.68874 7.55834 1.33333 7.99999 1.33333C8.44165 1.33333 8.79706 1.68874 9.50789 2.39957C9.93436 2.82604 10.357 3.02417 10.9653 3.02417C11.4929 3.02417 12.2452 2.92164 12.6604 3.33333C13.0788 3.74828 12.9758 4.50372 12.9758 5.0347C12.9758 5.70571 13.1226 6.01425 13.6004 6.49211C14.3112 7.20293 14.6667 7.55833 14.6667 7.99998C14.6667 8.44162 14.3112 8.79707 13.6004 9.50788C13.1225 9.98571 12.9758 10.2943 12.9758 10.9653C12.9758 11.4963 13.0788 12.2517 12.6603 12.6667Z" stroke="#000509" stroke-opacity="0.890196" stroke-width="1.5"/>
<path d="M6 8.59523C6 8.59523 6.8 9.02977 7.2 9.66666C7.2 9.66666 8.4 7.16666 10 6.33333" stroke="#000509" stroke-opacity="0.890196" stroke-width="1.5" stroke-linecap="round" stroke-linejoin="round"/>
</svg>
